<svg xmlns="http://www.w3.org/2000/svg" width="33" height="32" fill="none"><g clip-path="url(#a)"><g clip-path="url(#b)"><g fill="#E74040" clip-path="url(#c)"><path d="M11.775 21.605h9.45v4.725h-9.45v-4.724Z"/><path d="M16.5 3.652c-5.732 0-10.395 4.663-10.395 10.395V28.22A3.784 3.784 0 0 0 9.885 32h13.23a3.784 3.784 0 0 0 3.779-3.78V14.047c0-5.732-4.663-10.395-10.394-10.395Zm-5.67 8.505h11.34v1.89h-1.89v1.89h-1.89v-1.89h-7.56v-1.89ZM23.114 28.22H9.885v-8.505h13.23v8.505ZM26.204 1.839 20.841 0l-.784 2.288a12.293 12.293 0 0 1 4.985 2.94l1.162-3.39ZM12.943 2.288 12.158 0 6.795 1.839l1.162 3.389a12.294 12.294 0 0 1 4.986-2.94Z"/></g></g></g><defs><clipPath id="a"><path fill="#fff" d="M.5 0h32v32H.5z"/></clipPath><clipPath id="b"><path fill="#fff" d="M.5 0h32v32H.5z"/></clipPath><clipPath id="c"><path fill="#fff" d="M6.105 0h20.788v32H6.105z"/></clipPath></defs></svg>