<svg xmlns="http://www.w3.org/2000/svg" width="33" height="32" fill="none"><g clip-path="url(#a)"><g fill="#E74040" clip-path="url(#b)"><path d="M2.215 20c0 .315.256.57.571.57h27.429a.572.572 0 0 0 .571-.57V2.284H2.215V20ZM31.929 0H1.07a.571.571 0 0 0 0 1.143H31.93a.571.571 0 0 0 0-1.143ZM21.072 29.715h-4v-6.857h.571a.571.571 0 0 0 .572-.572v-.571h-3.429v.571c0 .316.256.572.572.572h.571v6.857h-4c-.947 0-1.714.767-1.714 1.714v.572h12.571v-.572c0-.947-.767-1.714-1.714-1.714Z"/></g></g><defs><clipPath id="a"><path fill="#fff" d="M.5 0h32v32H.5z"/></clipPath><clipPath id="b"><path fill="#fff" d="M.5 0h32v32H.5z"/></clipPath></defs></svg>