<svg xmlns="http://www.w3.org/2000/svg" width="33" height="32" fill="none"><g clip-path="url(#a)"><g fill="#E74040" clip-path="url(#b)"><path d="M14.095 12.495c.037-.03.077-.057.115-.085.1-.071.203-.136.31-.193.043-.023.084-.046.127-.066a2.764 2.764 0 0 1 3.04.416c.044.039.08.082.121.123.084.08.164.167.237.257.042.052.077.109.113.164.06.087.115.177.164.27a2.802 2.802 0 0 1 .195.474c.02.066.04.13.056.197.023.103.04.206.052.31.008.065.018.13.02.195.005.114.002.229-.008.343-.004.056-.003.112-.01.169-.023.164-.061.326-.113.483 0 .008-.003.016-.006.025l1.51.871 2.81-4.872L7.254 2.582l-2.81 4.872 9.298 5.367c.108-.119.226-.228.353-.326ZM1.654 7.788 6.151 0l.973.562L2.627 8.35l-.973-.562ZM26.988 17.872l.563-.974 3.894 2.249-.563.974-3.894-2.248ZM21.559 16.033l1.686-2.92 3.894 2.249-1.686 2.92-3.894-2.249Z"/><path d="M17.17 15.964a.54.54 0 0 0-.097-.128c.09-.092.167-.194.232-.304a1.693 1.693 0 0 0-.614-2.307 1.704 1.704 0 0 0-.366-.152c-.038-.01-.076-.018-.113-.026a1.729 1.729 0 0 0-.28-.037c-.041 0-.08-.005-.122-.004a1.675 1.675 0 0 0-1.184 2.831.54.54 0 0 0-.097.127L6.914 31.186a.563.563 0 0 0 1.006.503l7.366-14.739v14.488a.562.562 0 0 0 1.125 0V16.955l7.363 14.734a.563.563 0 0 0 1.006-.503l-7.608-15.222Z"/></g></g><defs><clipPath id="a"><path fill="#fff" d="M.5 0h32v32H.5z"/></clipPath><clipPath id="b"><path fill="#fff" d="M.5 0h32v32H.5z"/></clipPath></defs></svg>